<svg xmlns="http://www.w3.org/2000/svg" xmlns:xlink="http://www.w3.org/1999/xlink" width="897.766" height="761.85" viewBox="0 0 897.766 761.85"><defs><linearGradient id="a" x1="0.459" y1="0.999" x2="0.459" y2="-0.006" gradientUnits="objectBoundingBox"><stop offset="0" stop-color="gray" stop-opacity="0.251"/><stop offset="0.54" stop-color="gray" stop-opacity="0.122"/><stop offset="1" stop-color="gray" stop-opacity="0.102"/></linearGradient></defs><g transform="translate(-269 -291.959)"><g transform="translate(269 264.959)"><ellipse cx="427.068" cy="33" rx="427.068" ry="33" transform="translate(43.63 630.921)" fill="#3b8686" opacity="0.1"/><g transform="translate(0 321.188)" opacity="0.1"><path d="M178.14,568.33c1.28-3.89,6.47-5.68,11.59-4a12.776,12.776,0,0,1,2.13.92c.33-.09.67-.17,1-.23a11.26,11.26,0,0,1-.32-3.42,12.46,12.46,0,0,1-5.47-10.82,12.426,12.426,0,0,1-5.47-10.81,12,12,0,0,1-4.14-4.7C175,530.39,176,524.9,179.75,523s8.77.55,11.24,5.43a12,12,0,0,1,1.32,6.13,12.37,12.37,0,0,1,5.47,10.81,12.4,12.4,0,0,1,5.47,10.82A12.37,12.37,0,0,1,208.72,567a12,12,0,0,1,4.15,4.7,12.662,12.662,0,0,1,1,2.9,10.659,10.659,0,0,1,2.23-2.39,12.577,12.577,0,0,1,.52-2.27c1.69-5.12,6.2-8.24,10.09-7s5.67,6.47,4,11.59a11.67,11.67,0,0,1-3.81,5.59,12.669,12.669,0,0,1-.52,2.26,11.1,11.1,0,0,1-5.11,6.42,12.839,12.839,0,0,1,.42,2,12.57,12.57,0,0,1,2.53,3.43,12.32,12.32,0,0,1,1.26,4.08,12.55,12.55,0,0,1,2.54,3.43,12.391,12.391,0,0,1,1.26,4.08,12.451,12.451,0,0,1,2.54,3.44c2.47,4.88,1.45,10.38-2.28,12.26s-8.77-.54-11.24-5.43a12.48,12.48,0,0,1-1.26-4.08,12.7,12.7,0,0,1-3.8-7.51,12.7,12.7,0,0,1-3.8-7.51,12.6,12.6,0,0,1-2.54-3.43,12.729,12.729,0,0,1-1.26-4.08,12.569,12.569,0,0,1-2.53-3.43,12.32,12.32,0,0,1-1.26-4.08,11.632,11.632,0,0,1-1.71-2,11.9,11.9,0,0,1-6.18-.38,13.289,13.289,0,0,1-2.14-.93,11.61,11.61,0,0,1-6.75-.24C180,576.73,176.87,572.22,178.14,568.33Z" transform="translate(-88.65 -376.48)" fill="#3f3d56"/><g transform="translate(89.252 159.47)" opacity="0.1"><path d="M187.17,553a10.721,10.721,0,0,0,1.74,1.39,11.31,11.31,0,0,0,.56,4.24,11.935,11.935,0,0,1-1.06-1.73,12.46,12.46,0,0,1-1.24-3.9Z" transform="translate(-177.902 -535.95)"/><path d="M181.7,542.2a11.211,11.211,0,0,0,1.74,1.38,11.39,11.39,0,0,0,.56,4.25A12.7,12.7,0,0,1,181.7,542.2Z" transform="translate(-177.902 -535.95)"/><path d="M194.13,538.17a11.109,11.109,0,0,0-.08-2.22,12.661,12.661,0,0,1,2.41,3.31,13,13,0,0,1,.76,1.88,11.42,11.42,0,0,0-3.09-2.97Z" transform="translate(-177.902 -535.95)"/><path d="M228.83,603.63a11.649,11.649,0,0,0-1.48-1.7,12.4,12.4,0,0,0-.44-2,13.229,13.229,0,0,1,1.15,1.86,13,13,0,0,1,.77,1.84Z" transform="translate(-177.902 -535.95)"/><path d="M225,596.12a11.652,11.652,0,0,0-1.48-1.7,11.75,11.75,0,0,0-.42-2h0a12.67,12.67,0,0,1,1.88,3.68Z" transform="translate(-177.902 -535.95)"/><path d="M192.65,563.84a10.115,10.115,0,0,0,1.73,1.37,10.9,10.9,0,0,0,.32,3.42,10.014,10.014,0,0,0-1,.23,13.255,13.255,0,0,0-2.14-.92c-5.12-1.68-10.31.11-11.58,4a5.82,5.82,0,0,0-.17,3,6.93,6.93,0,0,1-1.66-6.61c1.28-3.89,6.47-5.68,11.59-4a12.776,12.776,0,0,1,2.13.92c.33-.09.67-.17,1-.23a10.323,10.323,0,0,1-.22-1.18Z" transform="translate(-177.902 -535.95)"/><path d="M230.71,607.4a12.79,12.79,0,0,1,1.15,1.87,13,13,0,0,1,.77,1.88,11.737,11.737,0,0,0-1.48-1.71A12.4,12.4,0,0,0,230.71,607.4Z" transform="translate(-177.902 -535.95)"/><path d="M199.6,549a11.08,11.08,0,0,0-.08-2.22,12.49,12.49,0,0,1,2.41,3.31,12.873,12.873,0,0,1,.76,1.87A11.381,11.381,0,0,0,199.6,549Z" transform="translate(-177.902 -535.95)"/><path d="M207.51,593.1a11.941,11.941,0,0,0,.49,2.2,12.629,12.629,0,0,1-1.88-3.77,11.715,11.715,0,0,0,1.39,1.57Z" transform="translate(-177.902 -535.95)"/><path d="M215.1,608.12a12.662,12.662,0,0,0,.5,2.2,11.931,11.931,0,0,1-1.06-1.73,12.879,12.879,0,0,1-.82-2A13,13,0,0,0,215.1,608.12Z" transform="translate(-177.902 -535.95)"/><path d="M211.31,600.61a11.941,11.941,0,0,0,.49,2.2,12.878,12.878,0,0,1-1.06-1.73,12.6,12.6,0,0,1-.82-2,11.722,11.722,0,0,0,1.39,1.53Z" transform="translate(-177.902 -535.95)"/><path d="M203.71,585.58a11.859,11.859,0,0,0,.49,2.21,12.441,12.441,0,0,1-1-1.73,12.228,12.228,0,0,1-.83-2A11.131,11.131,0,0,0,203.71,585.58Z" transform="translate(-177.902 -535.95)"/><path d="M228.58,566.59c-3.89-1.28-8.4,1.84-10.08,7a12.583,12.583,0,0,0-.52,2.27,10.63,10.63,0,0,0-2.24,2.38,12.829,12.829,0,0,0-1.05-2.9c-.17-.34-.36-.67-.56-1a10.629,10.629,0,0,1,2-2.1,12.579,12.579,0,0,1,.52-2.27c1.69-5.12,6.2-8.24,10.09-7a6.93,6.93,0,0,1,4.34,5.26,5.929,5.929,0,0,0-2.5-1.64Z" transform="translate(-177.902 -535.95)"/><path d="M210.54,570.62a11.109,11.109,0,0,0-.08-2.22,12.49,12.49,0,0,1,2.41,3.31,13,13,0,0,1,.76,1.88,11.28,11.28,0,0,0-3.09-2.97Z" transform="translate(-177.902 -535.95)"/><path d="M205.07,559.8a11.129,11.129,0,0,0-.08-2.22,12.832,12.832,0,0,1,2.41,3.31,13,13,0,0,1,.76,1.88,11.42,11.42,0,0,0-3.09-2.97Z" transform="translate(-177.902 -535.95)"/><path d="M218.9,615.63a11.9,11.9,0,0,0,.5,2.21,12.613,12.613,0,0,1-1.06-1.74,12.877,12.877,0,0,1-.82-2A13,13,0,0,0,218.9,615.63Z" transform="translate(-177.902 -535.95)"/></g><path d="M170.67,518.34a11.92,11.92,0,0,1-4.14-4.69c-2.47-4.89-1.45-10.38,2.28-12.27s8.77.54,11.24,5.43a11.93,11.93,0,0,1,1.32,6.12,12.4,12.4,0,0,1,5.47,10.82,12,12,0,0,1,4.15,4.69,13.229,13.229,0,0,1,.76,1.86,10.57,10.57,0,0,0-5.43-4,6.16,6.16,0,0,1-7.83,4,10.52,10.52,0,0,0,0,6.75,13.191,13.191,0,0,1-1-1.71,12,12,0,0,1-1.33-6.12,12.43,12.43,0,0,1-5.47-10.82Z" transform="translate(-88.65 -376.48)" fill="#3f3d56"/><path d="M110.55,449a36.81,36.81,0,0,1-4.39-2.43l16.28-11.9-19.14,9.85a36.34,36.34,0,0,1-13.59-25.34l32.54.34-32.61-5.46a36.29,36.29,0,1,1,71.81,9.2,36.729,36.729,0,0,1,6.68,4l-17,23.64,20.41-20.68a36.32,36.32,0,0,1,10.16,33.05,36.29,36.29,0,1,1-50.9,25.74,36.28,36.28,0,0,1-20.25-40Z" transform="translate(-88.65 -376.48)" fill="#3b8686"/><path d="M178.5,439.78a36.12,36.12,0,0,1,3.2,23.53,36.29,36.29,0,1,1-50.9,25.74C123.67,485.74,176.67,436.15,178.5,439.78Z" transform="translate(-88.65 -376.48)" opacity="0.1"/><circle cx="5.39" cy="5.39" r="5.39" transform="translate(43.58)" fill="#3b8686"/><circle cx="5.39" cy="5.39" r="5.39" transform="translate(12.12 3.46)" fill="#3b8686"/><circle cx="5.39" cy="5.39" r="5.39" transform="translate(0 51.85)" fill="#3b8686"/><circle cx="5.39" cy="5.39" r="5.39" transform="translate(16.37 76.02)" fill="#3b8686"/><circle cx="5.39" cy="5.39" r="5.39" transform="translate(38.73 126.21)" fill="#3b8686"/><circle cx="5.39" cy="5.39" r="5.39" transform="translate(38.73 126.21)" opacity="0.1"/><circle cx="5.39" cy="5.39" r="5.39" transform="translate(88.46 69.36)" fill="#3b8686"/><circle cx="5.39" cy="5.39" r="5.39" transform="translate(88.46 69.36)" opacity="0.1"/><path d="M188.25,539.81c3.58-1.81,4.66-6.93,2.57-11.66.11.2.22.39.32.59,2.47,4.89,1.45,10.38-2.29,12.27s-8.76-.54-11.23-5.43c-.1-.2-.2-.4-.29-.61C179.9,539.46,184.67,541.62,188.25,539.81Z" transform="translate(-88.65 -376.48)" opacity="0.1"/><path d="M193.56,550.33c3.58-1.81,4.67-6.94,2.58-11.66.11.19.22.39.32.59,2.47,4.89,1.45,10.38-2.29,12.27s-8.76-.54-11.23-5.43c-.11-.2-.2-.41-.29-.61C185.22,550,190,552.14,193.56,550.33Z" transform="translate(-88.65 -376.48)" opacity="0.1"/><path d="M198.88,560.84c3.58-1.81,4.67-6.93,2.57-11.66.12.2.22.39.33.6,2.47,4.88,1.44,10.38-2.29,12.26s-8.76-.54-11.23-5.43c-.11-.2-.2-.4-.29-.61C190.53,560.49,195.3,562.65,198.88,560.84Z" transform="translate(-88.65 -376.48)" opacity="0.1"/><path d="M204.2,571.36c3.58-1.81,4.67-6.93,2.57-11.66.11.19.22.39.32.59,2.48,4.89,1.45,10.38-2.28,12.27s-8.77-.54-11.24-5.43c-.1-.2-.19-.41-.28-.61C195.85,571,200.62,573.17,204.2,571.36Z" transform="translate(-88.65 -376.48)" opacity="0.1"/><path d="M209.52,581.87c3.58-1.81,4.66-6.93,2.57-11.65.11.19.22.39.32.59,2.47,4.89,1.45,10.38-2.28,12.27s-8.77-.55-11.24-5.43c-.1-.21-.19-.41-.29-.61C201.17,581.52,205.94,583.68,209.52,581.87Z" transform="translate(-88.65 -376.48)" opacity="0.1"/><path d="M214.84,592.39c3.58-1.81,4.66-6.93,2.57-11.66.11.2.22.39.32.59,2.47,4.89,1.45,10.38-2.28,12.27s-8.77-.54-11.24-5.43c-.1-.2-.2-.4-.29-.61C206.49,592,211.26,594.2,214.84,592.39Z" transform="translate(-88.65 -376.48)" opacity="0.1"/><path d="M220.16,602.91c3.57-1.81,4.66-6.94,2.57-11.66.11.19.22.39.32.59,2.47,4.89,1.45,10.38-2.29,12.27s-8.76-.55-11.23-5.43c-.1-.21-.2-.41-.29-.61C211.81,602.55,216.58,604.72,220.16,602.91Z" transform="translate(-88.65 -376.48)" opacity="0.1"/><path d="M225.47,613.42c3.58-1.81,4.67-6.93,2.57-11.66.12.2.22.39.33.6,2.47,4.88,1.44,10.38-2.29,12.26s-8.76-.54-11.23-5.43c-.11-.2-.2-.4-.29-.61C217.13,613.07,221.89,615.23,225.47,613.42Z" transform="translate(-88.65 -376.48)" opacity="0.1"/><path d="M229,620.33c3.58-1.81,4.66-6.93,2.57-11.66.11.2.22.39.32.6,2.47,4.88,1.45,10.38-2.28,12.26s-8.77-.54-11.24-5.43c-.1-.2-.2-.4-.29-.61C220.62,620,225.39,622.14,229,620.33Z" transform="translate(-88.65 -376.48)" opacity="0.1"/><path d="M132.86,573.53a18.569,18.569,0,0,1-1-4.93,2.69,2.69,0,1,1,.41-5.35,18.82,18.82,0,0,1,9.89-12.75,2.694,2.694,0,1,1,4.81-2.43,2.441,2.441,0,0,1,.24.72,18.92,18.92,0,0,1,16.56,5,18.68,18.68,0,0,1,5-.14l2.18,9.92L171,554a18.85,18.85,0,1,1-10.08,36.29,2.76,2.76,0,0,1-1.13,1.09,2.7,2.7,0,0,1-3.7-3.47,18.839,18.839,0,0,1-2.41-2,18.87,18.87,0,0,1-19.8-10l10.15-1.71Z" transform="translate(-88.65 -376.48)" fill="#3b8686"/><g transform="translate(53.72 176.4)" opacity="0.1"><path d="M148.54,578.35c3.75-5,6.05-10.8,8.69-16.42a66.7,66.7,0,0,1,3.56-6.74l2-2.31c.34.29.67.58,1,.88a18.68,18.68,0,0,1,5-.14l2.18,9.92L171,554a18.85,18.85,0,1,1-10.08,36.29,2.76,2.76,0,0,1-1.13,1.09,2.7,2.7,0,0,1-3.7-3.47,18.839,18.839,0,0,1-2.41-2,19,19,0,0,1-11.31-1.67,26.588,26.588,0,0,0,6.17-5.89Z" transform="translate(-142.37 -552.88)"/></g><path d="M214.91,557.09a2.68,2.68,0,0,1,1.19-3.61,2.64,2.64,0,0,1,1.22-.29,18.85,18.85,0,0,1,5.89-10.5,18.71,18.71,0,0,1-.55-5.89l9.89-1.66-9.61-.61a18.648,18.648,0,0,1,.72-2.66,2.64,2.64,0,0,1-.89-1,2.7,2.7,0,0,1,3.32-3.75,18.63,18.63,0,0,1,6.87-5.93,18.84,18.84,0,0,1,26.77,21.5,2.69,2.69,0,0,1-2.06,4.97A18.74,18.74,0,0,1,254.1,552a18.9,18.9,0,0,1-.87,12L240,560.52l11.83,6.23A18.86,18.86,0,0,1,219,565.21a19.11,19.11,0,0,1-1.94-6.65,2.67,2.67,0,0,1-2.15-1.47Z" transform="translate(-88.65 -376.48)" fill="#3b8686"/><path d="M214.91,557.09a2.68,2.68,0,0,1,1.19-3.61,2.64,2.64,0,0,1,1.22-.29,18.85,18.85,0,0,1,5.89-10.5c-.08-.31-.15-.63-.21-.94a7.269,7.269,0,0,1,1,.86c1.79,2,2.71,4.59,4.47,6.57a12.91,12.91,0,0,0,8.33,3.89,31.54,31.54,0,0,0,9.33-.75,27.351,27.351,0,0,1,7.72-.85l.74.1-.46.43a18.9,18.9,0,0,1-.87,12L240,560.52l11.83,6.23A18.86,18.86,0,0,1,219,565.21a19.11,19.11,0,0,1-1.94-6.65,2.67,2.67,0,0,1-2.15-1.47Z" transform="translate(-88.65 -376.48)" opacity="0.1"/></g><path d="M435,109a20.23,20.23,0,0,0-11.74,1.28,17.32,17.32,0,0,1-14.1,0,19.76,19.76,0,0,0-16.58.33,10.28,10.28,0,0,1-4.77,1.19c-6.72,0-12.31-6.77-13.47-15.7a13.07,13.07,0,0,0,3.36-3.62c3.94-6.35,10-10.43,16.89-10.43s12.89,4,16.83,10.31a13,13,0,0,0,11.16,6.14h.18C428.06,98.47,432.69,102.76,435,109Z" transform="translate(17.578 -33.09)" fill="#3b8686" opacity="0.1"/><path d="M455.42,81l-10.86,6.89,6.59-12a10.74,10.74,0,0,0-6.57-2.34h-.17a12.89,12.89,0,0,1-2.25-.17l-3.69,2.34,1.58-2.87A13.19,13.19,0,0,1,433.61,68L427,72.13l4.16-7.57c-3.85-4.63-9.05-7.47-14.76-7.47-6.85,0-13,4.08-16.9,10.43a12.62,12.62,0,0,1-11.17,6H388c-7.56,0-13.7,8.57-13.7,19.16s6.14,19.15,13.7,19.15a10.28,10.28,0,0,0,4.77-1.19,19.72,19.72,0,0,1,16.58-.32,17.37,17.37,0,0,0,14.1,0,19.75,19.75,0,0,1,16.43.32,10.351,10.351,0,0,0,4.72,1.16c7.57,0,13.7-8.57,13.7-19.15A24.359,24.359,0,0,0,455.42,81Z" transform="translate(17.609 -30.09)" fill="#3b8686" opacity="0.1"/><path d="M209,247.54a29,29,0,0,0-16.77,1.82,24.71,24.71,0,0,1-20.14-.05,28.22,28.22,0,0,0-23.68.47,14.75,14.75,0,0,1-6.82,1.7c-9.6,0-17.59-9.67-19.25-22.43a18.41,18.41,0,0,0,4.8-5.17c5.63-9.07,14.35-14.9,24.14-14.9s18.4,5.76,24,14.73a18.52,18.52,0,0,0,16,8.77h.25C199.11,232.47,205.73,238.6,209,247.54Z" transform="translate(-88.65 -56.469)" fill="#3b8686" opacity="0.1"/><path d="M238.2,207.49l-15.52,9.84,9.42-17.13a15.34,15.34,0,0,0-9.39-3.35h-.25a18.161,18.161,0,0,1-3.22-.24L214,200l2.26-4.1a18.7,18.7,0,0,1-9.2-7l-9.42,6,5.93-10.9c-5.51-6.61-12.93-10.66-21.09-10.66-9.79,0-18.51,5.82-24.14,14.89a18.05,18.05,0,0,1-16,8.61h-.53c-10.81,0-19.57,12.25-19.57,27.37s8.76,27.37,19.57,27.37a14.61,14.61,0,0,0,6.82-1.71,28.22,28.22,0,0,1,23.68-.46,24.71,24.71,0,0,0,20.14.05,28.25,28.25,0,0,1,23.48.45,14.65,14.65,0,0,0,6.74,1.67c10.81,0,19.57-12.26,19.57-27.37a34.76,34.76,0,0,0-4.04-16.72Z" transform="translate(-88.65 -57.09)" fill="#3b8686" opacity="0.1"/><path d="M836.62,148a20.24,20.24,0,0,1,11.74,1.28,17.29,17.29,0,0,0,14.09,0,19.76,19.76,0,0,1,16.58.33,10.31,10.31,0,0,0,4.77,1.19c6.72,0,12.32-6.77,13.48-15.7a12.93,12.93,0,0,1-3.36-3.62C890,125.11,883.87,121,877,121s-12.88,4-16.82,10.31A13,13,0,0,1,849,137.48h-.17C843.51,137.47,838.87,141.76,836.62,148Z" transform="translate(-158.434 -60.09)" fill="#3b8686" opacity="0.1"/><path d="M816.14,120,827,126.87l-6.6-12a10.76,10.76,0,0,1,6.57-2.34h.18a13,13,0,0,0,2.25-.17l3.68,2.34-1.58-2.87A13.21,13.21,0,0,0,838,107l6.59,4.18-4.17-7.57c3.86-4.63,9-7.47,14.77-7.47,6.85,0,13,4.08,16.9,10.43a12.61,12.61,0,0,0,11.17,6h.36c7.57,0,13.7,8.57,13.7,19.16s-6.13,19.15-13.7,19.15a10.34,10.34,0,0,1-4.77-1.19,19.72,19.72,0,0,0-16.58-.32,17.35,17.35,0,0,1-14.09,0,19.77,19.77,0,0,0-16.44.32,10.32,10.32,0,0,1-4.72,1.16c-7.56,0-13.7-8.57-13.7-19.15a24.361,24.361,0,0,1,2.82-11.7Z" transform="translate(-158.457 -60.09)" fill="#3b8686" opacity="0.1"/><ellipse cx="115" cy="20" rx="115" ry="20" transform="translate(503.242 739.921)" fill="#3b8686" opacity="0.1"/><path d="M555.44,661.88l-178.19-2.29.53-4.57,8.61-75.39H542.88l11.51,75.39.88,5.72Z" transform="translate(1.847 2.505)" fill="#d0d2d5"/><path d="M555.27,660.74H466.35l-89.1-1.15.53-4.57H554.39Z" transform="translate(1.847 3.041)" opacity="0.1"/><rect width="236.45" height="5.71" transform="translate(349.378 659.211)" fill="#d0d2d5"/><path d="M898.24,183.92A14.87,14.87,0,0,0,883.44,169H223.12a14.87,14.87,0,0,0-14.8,14.94V584.19H898.24Z" transform="translate(-88.65 -57.09)" fill="#3f3d56"/><path d="M208.32,580.19v46.88a14.8,14.8,0,0,0,14.8,14.8H883.44a14.8,14.8,0,0,0,14.8-14.8V580.19Z" transform="translate(-88.65 -54.894)" fill="#d0d2d5"/><rect width="636.23" height="359.81" transform="translate(148.23 137.988)" fill="#fff"/><path d="M556.71,624.08a15.4,15.4,0,0,0,12.13-5.89h0a16.05,16.05,0,0,0,1.2-1.76L561.57,615l9.15.06a15.42,15.42,0,0,0,.29-12.21l-12.27,6.36,11.32-8.32a15.42,15.42,0,1,0-25.47,17.26h0a15.4,15.4,0,0,0,12.12,5.93Z" transform="translate(-86.763 -54.931)" fill="#3b8686"/><path d="M483.48,584.77l71.09,71.4-10.91-71.4Z" transform="translate(2.101 2.489)" opacity="0.1"/><rect width="636.92" height="21.02" transform="translate(147.73 137.595)" fill="#444053" opacity="0.1"/><rect width="191.9" height="12.79" rx="0.58" transform="translate(370.706 140.71)" fill="#3b8686" opacity="0.3"/><path d="M643.72,205.52h-.47l-.17-.15a3.89,3.89,0,0,0,.9-2.49,3.78,3.78,0,1,0-3.77,3.81,3.9,3.9,0,0,0,2.49-.91l.17.15v.47l2.93,2.93.87-.88Zm-3.51,0a2.62,2.62,0,1,1,1.866-.771,2.64,2.64,0,0,1-1.866.771Z" transform="translate(-86.412 -57.09)" fill="#3f3d56"/><circle cx="3.85" cy="3.85" r="3.85" transform="translate(155.33 143.71)" fill="#fa5959" opacity="0.8"/><circle cx="3.85" cy="3.85" r="3.85" transform="translate(165.92 143.71)" fill="#fed253" opacity="0.8"/><circle cx="3.85" cy="3.85" r="3.85" transform="translate(176.52 143.71)" fill="#8ccf4d" opacity="0.8"/><path d="M769.65,802.31a9.56,9.56,0,0,0-2.17-2.41c-4.37-4.13-6.4-10.19-7.48-16.13s-1.39-12-3.12-17.81a58.74,58.74,0,0,0-3.52-8.67c-1-2.14-2.26-6.33-4.09-7.83a2.7,2.7,0,0,0-1.26-.61,14.851,14.851,0,0,0-3.62-4.82c-2.86-2.59-6.35-4.65-8.26-8a18,18,0,0,0-1.93-3.29c-1.29-1.42-3.33-2-4.52-3.5-1.55-1.94-1.2-4.72-1-7.19s0-5.43-2.14-6.73c-1.28-.79-2.93-.71-4.26-1.41-2-1-2.79-3.52-2.75-5.77s.74-4.44.92-6.69c.56-7.16-4.16-14.28-2.34-21.22.69-2.63,2.27-4.91,3.44-7.36a15.372,15.372,0,0,0,1-2.54,35.734,35.734,0,0,0,9.74,2.35c-5.51-12.36-4.11-26.72-6.68-40l.33-.45a20.84,20.84,0,0,0,4.22-11.86c0-4.94-2.31-9.56-3.35-14.4-.89-4.11-.85-8.41-2-12.45a37.653,37.653,0,0,0-3.16-7.22q-1.87-3.47-3.93-6.83-1.92-6.36-3.85-12.72c-1.8-5.95-3.65-12-7.15-17.14-1.28-1.88-1.67-5.7-3.64-6.84a8.81,8.81,0,0,0-5.2-.91c-2.78-1.56-5.22-3.81-5.57-6.89a6.679,6.679,0,0,1,.2-2h.34c4.4-.4,6.63-4.28,8.92-7.68,3.7-5.5,2.29-12.94,0-19.2a13,13,0,0,0-3-5.29c-3.21-3-8.29-2.34-12.43-3.79-1.39-.48-2.69-1.21-4.11-1.55-2.75-.64-5.63.26-8.15,1.53s-4.87,2.91-7.51,3.91-5.9,1.79-6.55,4.5a5,5,0,0,0,.22,2.73,10.18,10.18,0,0,0,3.09,4.46,17.81,17.81,0,0,0,10.87,24.82c.76,1.22,1.47,2.46,2.12,3.73,1.16,2.24,2.14,4.88,1.74,7.28a22.443,22.443,0,0,0-2,2.45c-2.87,4-4.5,8.69-6,13.37a141.651,141.651,0,0,0-4.83,18.27c-2.44,5.19-5.42,10.15-7.19,15.6a35.211,35.211,0,0,1-9.38-1.26l-8.44-1.91c-2.94-.67-6-1.39-8.3-3.33-1.22-1-2.17-2.33-3.41-3.32s-3.73-2.15-5.09-1.33a4,4,0,0,0-.69.53c-1.24-2.51-2.42-5-3.86-7.43-2.07-3.4-5.15-6.51-9.05-7.16a9.21,9.21,0,0,0-6.79,1.58c-2.28,1.62-3.71,5-2,7.28a13.294,13.294,0,0,0,1.39,1.42,29.207,29.207,0,0,1,3.09,4.29A21.91,21.91,0,0,0,619,596.23l-.35,1c-.71,2.08-2.22,4.59-1.84,6.75l37.54,12.85a23.129,23.129,0,0,0,7.56,1.67,12.207,12.207,0,0,0,3-.4v2c.1,13.19-2,26.29-2.39,39.47-.07,2.41,0,5,1.52,6.88,1.7,2.06,4.72,2.47,7.35,2a17.092,17.092,0,0,0,1.86-.42,69.327,69.327,0,0,1,1.92,10.11L677.65,696a27.138,27.138,0,0,1,.39,5.54c-.29,4.19-2.5,7.94-4.1,11.81s-2.55,8.5-.45,12.12c.66,1.12,1.57,2.07,2.16,3.23a13.141,13.141,0,0,1,1,5.68q.23,8.08.44,16.18a1.83,1.83,0,0,0-1.26.25c-2.08,1.62-1.85,9.33-2,11.72-.16,4,0,8.08-.22,12.12A72.216,72.216,0,0,1,671,790.74a10.29,10.29,0,0,1-2.29,4.61,9.738,9.738,0,0,1-4.07,2.11,46.488,46.488,0,0,1-15.41,2.1c-2.11-.07-4.31-.27-6.27.53s-3.54,3-2.83,5c.61,1.68,2.46,2.48,4.13,3.11a65.526,65.526,0,0,1,11,5.06,29.738,29.738,0,0,0,4.25,2.41,21.914,21.914,0,0,0,4.38,1.08l17.73,3.06c3.63.62,8,1,10.31-2,1.25-1.62,1.43-3.82,1.37-5.88-.1-4-.9-8.07-.38-12.07a37.145,37.145,0,0,1,1.86-6.93q2.65-7.87,5.32-15.73c1.78-5.26,3.58-10.57,4.27-16.09.25-2,.23-4.28-1.3-5.53a3.542,3.542,0,0,0-1.32-.68c-.06-4.82-.69-9.65-.42-14.47.07-1.2.19-2.4.29-3.61a17.609,17.609,0,0,1,2.47,2.92c1.71,2.68,2.34,6.22,4.95,8,2.22,1.52,5.51,1.44,7.07,3.64a10.259,10.259,0,0,1,1.12,2.71,19.321,19.321,0,0,0,4,6.35,32,32,0,0,0,2.47,6.34q2.21,4.67,4.4,9.31a108.574,108.574,0,0,0,5,9.77,27.552,27.552,0,0,1,3.35,6.46c1.41,4.94-.89,10.36-4.53,14s-8.44,5.73-13.17,7.68a3.71,3.71,0,0,0-1.34.8,2.591,2.591,0,0,0-.61,1.74,5.645,5.645,0,0,0,4.08,5,15.26,15.26,0,0,0,6.83.25c12.78-1.55,25.52-4.67,36.82-10.88a13,13,0,0,0,4.39-3.39,5.13,5.13,0,0,0,.73-5.21Z" transform="translate(-86.169 -54.049)" fill="url(#a)"/><path d="M715.64,578.06q3.2,4.91,6,10.06a37,37,0,0,1,3.17,7.17c1.16,4,1.13,8.27,2,12.35,1,4.8,3.34,9.38,3.34,14.3a20.561,20.561,0,0,1-4.22,11.76,55.82,55.82,0,0,1-8.82,9.1,187.619,187.619,0,0,1-12.48-61.21c-.1-2.9-.12-5.89.94-8.6.65-1.7,3.77-6.36,5.78-4.53.73.67.92,3.69,1.37,4.7a36.119,36.119,0,0,0,2.92,4.9Z" transform="translate(-86.095 -54.905)" fill="#2f2e41"/><path d="M715.64,578.06q3.2,4.91,6,10.06a37,37,0,0,1,3.17,7.17c1.16,4,1.13,8.27,2,12.35,1,4.8,3.34,9.38,3.34,14.3a20.561,20.561,0,0,1-4.22,11.76,55.82,55.82,0,0,1-8.82,9.1,187.619,187.619,0,0,1-12.48-61.21c-.1-2.9-.12-5.89.94-8.6.65-1.7,3.77-6.36,5.78-4.53.73.67.92,3.69,1.37,4.7a36.119,36.119,0,0,0,2.92,4.9Z" transform="translate(-86.095 -54.905)" opacity="0.1"/><path d="M452,441.63c-7.91,7.9-8.86,11.38-13.61,12.95S416.55,465,421.92,474.81l14.44,9.54.42.28,2.21,6.64-21.84,38.88s-36-16.46-39.53,7.89-1.29,31-2.24,44,.31,16.76-2.86,16.76-4.42-8.54-4.42-8.54-.2-.39-.55-1.12c-4.71-9.79-36.68-81.66,14.53-131.06,0,0,23.72-1.56,29.43-28.76,3.94-18.8,17.72-17.18,26.88-13.35a30.379,30.379,0,0,1,8.22,4.83,40.48,40.48,0,0,1,5.89,7C455.11,431.92,456.53,437.09,452,441.63Z" transform="translate(-87.461 -55.285)" fill="#d0d2d5"/><path d="M436.78,484.63l2.21,6.64-21.84,38.88s-36-16.46-39.53,7.89-1.29,31-2.24,44,.31,16.76-2.86,16.76-4.42-8.54-4.42-8.54-.2-.39-.55-1.12c-1.59-12.16-9.65-83.29,19.57-79.51,0,0,23.71,11.08,27.5,6.66,3-3.5,16.32-23.63,21.74-31.89Z" transform="translate(-87.444 -55.155)" opacity="0.1"/><path d="M452.5,427.74l-14.44,16.41s-16.77,22.44-20.25,21.49a16.233,16.233,0,0,0-3.17-.37,6.16,6.16,0,0,1-4-10.38c5.72-6,16.26-17.39,16.95-19.92s7.4-13.62,10.76-19.05a30.38,30.38,0,0,1,8.22,4.83,40.483,40.483,0,0,1,5.93,6.99Z" transform="translate(-87.297 -55.608)" opacity="0.1"/><path d="M861.06,663.83c-2.45,4.9-15,23.28-20.49,31.31L838,698.92s-1,6.64-17.39-1.59S419.13,526.61,419.13,526.61l-2.61-7.84,19-28.45L857.59,653.39S864.23,657.5,861.06,663.83Z" transform="translate(-86.301 -54.798)" fill="#454b69"/><path d="M840.57,695.14,838,698.92s-1,6.64-17.39-1.59S419.13,526.61,419.13,526.61l-2.61-7.84Z" transform="translate(-86.385 -54.763)" opacity="0.1"/><path d="M608.29,589c-3.91-.64-8.25-.33-11.29,2.21a9.29,9.29,0,0,0-3.24,6.16c-.26,2.77,1.35,6.06,4.13,6.27a13.159,13.159,0,0,0,2-.13,29.886,29.886,0,0,1,5.24.44,21.39,21.39,0,0,0,18.23-7.36c2.39-3-.76-4.3-3.58-4.9C615.92,590.87,612.15,589.62,608.29,589Z" transform="translate(-86.545 -54.992)" fill="#fbbebe"/><path d="M675.17,679.31l2.48,17.62a26.843,26.843,0,0,1,.38,5.51c-.29,4.15-2.5,7.87-4.09,11.71s-2.56,8.44-.45,12c.65,1.11,1.56,2.06,2.15,3.21a12.92,12.92,0,0,1,1,5.63l.68,25a157.323,157.323,0,0,0,23.18-.13,1.29,1.29,0,0,0,.84-.26,1.36,1.36,0,0,0,.29-.91c.34-5.85-.68-11.71-.35-17.56.12-2.14.42-4.27.46-6.42.12-8.71-4.18-17.24-2.88-25.85a56.994,56.994,0,0,1,1.6-6.43c4.11-15,3.24-30.76,2.33-46.25a1.09,1.09,0,0,0-.2-.7,1.06,1.06,0,0,0-.54-.29,28.45,28.45,0,0,0-25.78,4.9c-1.09.88-3.84,1.73-4.56,2.78-1,1.46.31,2.92.89,4.47a56.89,56.89,0,0,1,2.57,11.97Z" transform="translate(-86.217 -54.049)" fill="#3f3d56"/><path d="M675.17,679.31l2.48,17.62a26.843,26.843,0,0,1,.38,5.51c-.29,4.15-2.5,7.87-4.09,11.71s-2.56,8.44-.45,12c.65,1.11,1.56,2.06,2.15,3.21a12.92,12.92,0,0,1,1,5.63l.68,25a157.323,157.323,0,0,0,23.18-.13,1.29,1.29,0,0,0,.84-.26,1.36,1.36,0,0,0,.29-.91c.34-5.85-.68-11.71-.35-17.56.12-2.14.42-4.27.46-6.42.12-8.71-4.18-17.24-2.88-25.85a56.994,56.994,0,0,1,1.6-6.43c4.11-15,3.24-30.76,2.33-46.25a1.09,1.09,0,0,0-.2-.7,1.06,1.06,0,0,0-.54-.29,28.45,28.45,0,0,0-25.78,4.9c-1.09.88-3.84,1.73-4.56,2.78-1,1.46.31,2.92.89,4.47a56.89,56.89,0,0,1,2.57,11.97Z" transform="translate(-86.217 -54.049)" opacity="0.1"/><path d="M721.54,674c-1.17,2.43-2.74,4.69-3.44,7.3-1.82,6.89,2.89,14,2.33,21.06-.18,2.23-.87,4.4-.92,6.63s.77,4.71,2.75,5.74c1.33.68,3,.61,4.25,1.39,2.11,1.29,2.35,4.22,2.14,6.68s-.56,5.21,1,7.13c1.19,1.49,3.23,2.07,4.51,3.48a17.164,17.164,0,0,1,1.93,3.26c1.91,3.34,5.4,5.38,8.26,8s5.28,6.46,4,10.09c-.94,2.66-3.58,4.3-6.12,5.55a64.932,64.932,0,0,1-14.57,5.15,3.519,3.519,0,0,1-1.67.09,3.569,3.569,0,0,1-1.46-1c-2.95-2.89-6-5.92-7.36-9.81a10.071,10.071,0,0,0-1.12-2.68c-1.56-2.19-4.85-2.11-7.07-3.62-2.6-1.77-3.23-5.28-4.93-7.93s-4.19-4.23-6-6.56c-3.06-3.88-3.81-9.06-6-13.49-.93-1.88-2.12-3.64-2.86-5.6a30.581,30.581,0,0,1-1.37-7.24c-1.41-11.68-5-23.44-2.74-35,.5-2.54,1.27-5,1.59-7.62.55-4.53-.32-9.17.35-13.69a3.77,3.77,0,0,1,1.51-2.91,4,4,0,0,1,1.72-.35,117.264,117.264,0,0,1,17.78.4c3,.29,6.36.9,8.16,3.35,1.53,2.1,1.45,4.91,1.94,7.46.61,3.14,2.2,4.85,3.87,7.31S722.77,671.46,721.54,674Z" transform="translate(-86.079 -54.049)" fill="#3f3d56"/><path d="M698.47,755.26c1.58,0,3.33-.1,4.55.9,1.52,1.25,1.54,3.54,1.3,5.49-.7,5.48-2.49,10.75-4.28,16l-5.32,15.61a36.655,36.655,0,0,0-1.86,6.88c-.52,4,.28,8,.38,12,0,2-.13,4.22-1.38,5.83-2.26,2.91-6.67,2.57-10.3,2l-17.71-3a21.068,21.068,0,0,1-4.38-1.07,30.61,30.61,0,0,1-4.25-2.39,65.411,65.411,0,0,0-11-5c-1.66-.62-3.52-1.41-4.12-3.08-.71-2,.87-4.2,2.83-5s4.15-.6,6.27-.54a47,47,0,0,0,15.4-2.08,9.74,9.74,0,0,0,4.06-2.1A10,10,0,0,0,671,791a70.167,70.167,0,0,0,2.68-16c.21-4,.07-8,.23-12,.1-2.37-.13-10,1.95-11.63,1.59-1.22,8.13,2.15,10.28,2.64A50,50,0,0,0,698.47,755.26Z" transform="translate(-86.271 -54.049)" fill="#2f2e41"/><path d="M756.81,766.38c1.73,5.73,2,11.79,3.12,17.68s3.1,11.9,7.47,16a9.868,9.868,0,0,1,2.17,2.4,5.06,5.06,0,0,1-.75,5.23,13.129,13.129,0,0,1-4.39,3.37c-11.29,6.16-24,9.27-36.81,10.81a15.511,15.511,0,0,1-6.82-.25c-2.18-.74-4.11-2.7-4.07-5a2.55,2.55,0,0,1,.6-1.73,3.731,3.731,0,0,1,1.35-.79c4.72-1.94,9.51-4.05,13.16-7.63s5.94-9,4.53-13.86A27.418,27.418,0,0,0,733,786.2a108.34,108.34,0,0,1-5-9.69l-4.4-9.23c-1.29-2.7-2.59-5.48-2.81-8.46a40.6,40.6,0,0,0,16.22-2.6,25.505,25.505,0,0,0,6.67-4c1.7-1.42,3.25-4.07,5.54-2.22,1.84,1.48,3,5.65,4.08,7.76a57,57,0,0,1,3.51,8.62Z" transform="translate(-85.971 -54.049)" fill="#2f2e41"/><path d="M692.33,537.19c.44,3.84,4.16,6.37,7.71,7.89l-22.47,7.17c1.45-2.78.28-6.18-1.16-9a50.93,50.93,0,0,0-4-6.41c-.22-.31-.47-.7-.31-1.06a1.12,1.12,0,0,1,.63-.49c4.62-2.06,9.38-4.19,14.43-4.94,1.46-.21,4.22-.79,5.31.69S692.12,535.42,692.33,537.19Z" transform="translate(-86.224 -55.207)" fill="#fbbebe"/><path d="M692.33,537.19c.44,3.84,4.16,6.37,7.71,7.89l-22.47,7.17c1.45-2.78.28-6.18-1.16-9a50.93,50.93,0,0,0-4-6.41c-.22-.31-.47-.7-.31-1.06a1.12,1.12,0,0,1,.63-.49c4.62-2.06,9.38-4.19,14.43-4.94,1.46-.21,4.22-.79,5.31.69S692.12,535.42,692.33,537.19Z" transform="translate(-86.224 -55.207)" opacity="0.1"/><circle cx="17.62" cy="17.62" r="17.62" transform="translate(575.4 449.785)" fill="#fbbebe"/><path d="M664,667.68c1.71,2.05,4.72,2.45,7.35,2,6.15-1,11.18-5.53,17.2-7.16,7.38-2,15.19.57,22.16,3.72s13.9,7,21.52,7.54c-6.89-15.36-2.95-33.84-9.54-49.33-1.61-3.79-3.86-7.44-4.22-11.54-.45-5.09,2.09-10,2.48-15.06.36-4.51-1-9-2.3-13.3l-4.82-15.84c-1.8-5.91-3.65-11.92-7.14-17-1.29-1.87-1.68-5.66-3.64-6.79-4.28-2.47-10.77.64-15.41.81s-8.87,3.47-11.58,7.2c-2.87,3.94-4.5,8.63-6,13.27a126.156,126.156,0,0,0-5.33,21.23c-.15,1.08-.28,2.16-.38,3.25-1,10.27.46,20.6.54,30.92v.07c.1,13.09-2,26.1-2.39,39.18C662.46,663.24,662.52,665.85,664,667.68Z" transform="translate(-86.16 -54.833)" fill="#2f2e41"/><path d="M664.92,621.61c3.45-.87,6.57-3.1,9.25-5.54a38.673,38.673,0,0,0,6.14-7A49.865,49.865,0,0,0,685.6,598a129.361,129.361,0,0,0,7-32.27c.26-3,.34-6.22-1.45-8.6a7.24,7.24,0,0,0-8.75-2.12c-2.36,1.15-3.89,3.48-5.31,5.71-2.81,4.42-5.64,8.9-7.45,13.82-.8,2.18-1.39,4.42-2.17,6.61a60.992,60.992,0,0,1-2.74,6.33c-.15,1.08-.28,2.16-.38,3.25C663.42,601,664.84,611.29,664.92,621.61Z" transform="translate(-86.256 -54.986)" opacity="0.1"/><path d="M691.1,555.2c1.79,2.38,1.71,5.63,1.46,8.59a129.179,129.179,0,0,1-7,32.27,49.432,49.432,0,0,1-5.29,11.16,39.069,39.069,0,0,1-6.14,7c-3.4,3.1-7.54,5.87-12.15,5.91a23.161,23.161,0,0,1-7.56-1.65L616.87,605.7c-.38-2.14,1.13-4.64,1.84-6.7l2-5.93c.57-1.64,1.23-3.41,2.72-4.3s3.85.33,5.09,1.32,2.18,2.29,3.4,3.3c2.31,1.92,5.36,2.64,8.3,3.3l8.43,1.89a35.2,35.2,0,0,0,9.38,1.25c2.35-7.18,6.82-13.5,9.35-20.62.78-2.18,1.37-4.43,2.18-6.61,1.8-4.92,4.64-9.39,7.45-13.82,1.41-2.22,2.94-4.55,5.31-5.71A7.23,7.23,0,0,1,691.1,555.2Z" transform="translate(-86.343 -54.993)" fill="#2f2e41"/><path d="M684.89,526.66a8.888,8.888,0,0,0-1.06-3.3,2.77,2.77,0,0,0-3-1.32c-1.76.55-2.122,2.557-3.962,2.647a2.575,2.575,0,0,1-2.748-1.667c-.39-1.18-.6-2.53-1.53-3.36a5.7,5.7,0,0,0-2.18-1c-4.27-1.35-8.68-3.84-10.1-8.09a4.84,4.84,0,0,1-.23-2.71c.65-2.69,4-3.5,6.55-4.47s5-2.63,7.5-3.89,5.4-2.15,8.15-1.51a42.48,42.48,0,0,1,4.11,1.53c4.14,1.44,9.21.77,12.42,3.76a12.83,12.83,0,0,1,3,5.24c2.24,6.22,3.66,13.6-.05,19.06-2.29,3.37-4.51,7.22-8.91,7.63C687.73,535.64,685.7,531,684.89,526.66Z" transform="translate(-86.236 -55.299)" fill="#2f2e41"/><g transform="translate(573.774 449.262)" opacity="0.1"><path d="M677.07,520.9c-.39-1.18-.6-2.53-1.52-3.36a5.7,5.7,0,0,0-2.18-1c-4.28-1.35-8.68-3.84-10.11-8.09a4.931,4.931,0,0,1-.22-2.71,3.39,3.39,0,0,1,.53-1.19c-1.63.71-3.05,1.65-3.45,3.31a4.84,4.84,0,0,0,.23,2.71c1.42,4.25,5.83,6.74,10.1,8.09a5.7,5.7,0,0,1,2.18,1c.93.83,1.13,2.17,1.53,3.36s1.28,2.44,2.52,2.38,1.84-1.19,2.63-2.14A3.183,3.183,0,0,1,677.07,520.9Z" transform="translate(-660.023 -504.55)"/><path d="M695.79,533.06c-5.14.47-7.17-4.21-8-8.52a8.7,8.7,0,0,0-1-3.3,2.78,2.78,0,0,0-3-1.32,5.32,5.32,0,0,0-2.21,2,3,3,0,0,1,2.26,1.4,8.888,8.888,0,0,1,1.06,3.3c.81,4.31,2.84,9,8,8.52a8.25,8.25,0,0,0,5.28-2.74A7.458,7.458,0,0,1,695.79,533.06Z" transform="translate(-660.023 -504.55)"/></g><ellipse cx="32.29" cy="6.21" rx="32.29" ry="6.21" transform="translate(784.19 652.611)" fill="#3b8686"/><ellipse cx="3.76" cy="4.92" rx="3.76" ry="4.92" transform="translate(812.105 651.26)" fill="#3f3d56"/><ellipse cx="3.76" cy="4.92" rx="3.76" ry="4.92" transform="translate(812.105 645.241)" fill="#3f3d56"/><ellipse cx="3.76" cy="4.92" rx="3.76" ry="4.92" transform="translate(812.105 639.231)" fill="#3f3d56"/><ellipse cx="3.76" cy="4.92" rx="3.76" ry="4.92" transform="translate(812.105 633.211)" fill="#3f3d56"/><ellipse cx="3.76" cy="4.92" rx="3.76" ry="4.92" transform="translate(812.105 626.596)" fill="#3f3d56"/><ellipse cx="3.76" cy="4.92" rx="3.76" ry="4.92" transform="translate(812.105 620.562)" fill="#3f3d56"/><ellipse cx="3.76" cy="4.92" rx="3.76" ry="4.92" transform="translate(812.105 614.518)" fill="#3f3d56"/><path d="M915.29,633a18.193,18.193,0,0,0,1.4-2.06l-9.88-1.62,10.69.07a18.11,18.11,0,0,0,.34-14.27l-14.34,7.44,13.22-9.72A18,18,0,1,0,887,633a17.923,17.923,0,0,0-2.06,3.28l12.83,6.67-13.68-4.59A18,18,0,0,0,887,655.24a18,18,0,1,0,28.31,0,18,18,0,0,0,0-22.27Z" transform="translate(-85.32 -54.733)" fill="#3b8686"/><path d="M883.12,644.1A17.909,17.909,0,0,0,887,655.24a18,18,0,1,0,28.31,0C917.7,652.17,883.12,642.08,883.12,644.1Z" transform="translate(-85.32 -54.696)" opacity="0.1"/><ellipse cx="46.49" cy="8.94" rx="46.49" ry="8.94" transform="translate(101.93 770.971)" fill="#3b8686"/><ellipse cx="5.41" cy="7.09" rx="5.41" ry="7.09" transform="translate(142.23 769.021)" fill="#3f3d56"/><ellipse cx="5.41" cy="7.09" rx="5.41" ry="7.09" transform="translate(142.23 760.361)" fill="#3f3d56"/><ellipse cx="5.41" cy="7.09" rx="5.41" ry="7.09" transform="translate(142.23 751.701)" fill="#3f3d56"/><ellipse cx="5.41" cy="7.09" rx="5.41" ry="7.09" transform="translate(142.23 743.041)" fill="#3f3d56"/><ellipse cx="5.41" cy="7.09" rx="5.41" ry="7.09" transform="translate(142.23 734.381)" fill="#3f3d56"/><ellipse cx="5.41" cy="7.09" rx="5.41" ry="7.09" transform="translate(142.23 725.711)" fill="#3f3d56"/><ellipse cx="5.41" cy="7.09" rx="5.41" ry="7.09" transform="translate(142.23 717.051)" fill="#3f3d56"/><path d="M256.55,718.93a27.232,27.232,0,0,0,2-3l-14.22-2.34,15.38.12a26,26,0,0,0,.49-20.55L239.58,703.9l19-14a25.93,25.93,0,1,0-42.83,29,25.827,25.827,0,0,0-3,4.72l18.47,9.6-19.69-6.61A25.93,25.93,0,0,0,215.79,751a25.93,25.93,0,1,0,40.76,0,25.92,25.92,0,0,0,0-32.06Z" transform="translate(-88.65 -54.049)" fill="#3b8686"/><path d="M210.24,735a25.847,25.847,0,0,0,5.547,16,25.93,25.93,0,1,0,40.763,0C260,746.58,210.24,732.05,210.24,735Z" transform="translate(-88.65 -54.049)" opacity="0.1"/></g><text transform="translate(451 485)" fill="#0b486b" font-size="51" font-family="Nunito-Bold, Nunito" font-weight="700"><tspan x="0" y="52">Keep Track Like a Pro.</tspan></text><text transform="translate(451 585)" fill="#0b486b" font-size="28" font-family="Nunito-Regular, Nunito" opacity="0.6"><tspan x="0" y="0">Awesomeness for the whole team.</tspan></text></g></svg>